PathFileType	4	(X/Y/Z)	/Users/visionmauri/Downloads/Videos/OAW04-top_Sports2D/OAW04-top_Sports2D_px_person00.trc
DataRate	CameraRate	NumFrames	NumMarkers	Units	OrigDataRate	OrigDataStartFrame	OrigNumFrames
30.0	30.0	13	22	m	30.0	2071	2367
Frame#	Time	Hip			RHip			RKnee			RAnkle			RBigToe			RSmallToe			RHeel			LHip			LKnee			LAnkle			LBigToe			LSmallToe			LHeel			Neck			Head			Nose			RShoulder			RElbow			RWrist			LShoulder			LElbow			LWrist			
		X1	Y1	Z1	X2	Y2	Z2	X3	Y3	Z3	X4	Y4	Z4	X5	Y5	Z5	X6	Y6	Z6	X7	Y7	Z7	X8	Y8	Z8	X9	Y9	Z9	X10	Y10	Z10	X11	Y11	Z11	X12	Y12	Z12	X13	Y13	Z13	X14	Y14	Z14	X15	Y15	Z15	X16	Y16	Z16	X17	Y17	Z17	X18	Y18	Z18	X19	Y19	Z19	X20	Y20	Z20	X21	Y21	Z21	X22	Y22	Z22
2071	69.06251056635674	629.2459234865164	779.9860073403123	0.0	640.6081384427777	782.8181962991325	0.0	643.9796269730343	820.9107485609967	0.0	644.0188237282903	856.1510282411798	0.0	644.0061828900245	864.6922676553886	0.0	647.9780696502239	866.3946572549006	0.0	643.4761730991579	864.6726505327756	0.0	617.3104454162421	781.1158799885725	0.0	619.5716266959219	819.2263432346966	0.0	622.4246705324997	861.8535892632228	0.0	620.6847922754389	872.6509551584587	0.0	615.5842144868429	873.7939713033015	0.0	623.5683072304862	870.9433192247944	0.0	634.9146480256198	713.4720856362651	0.0	638.3192418894387	685.615740221809	0.0	638.8719825677648	706.0868915153924	0.0	654.8015817627787	723.135803966049	0.0	661.5983593167679	757.8024466315171	0.0	661.5984221152888	786.7857748957953	0.0	613.3387761431065	718.5999031357072	0.0	601.9729927677637	749.8682416089329	0.0	600.8110983114051	773.1850215384876	0.0
2072	69.09585798816569	629.242752389761	780.3130390640719	0.0	640.6266209028383	783.1681894906367	0.0	644.3484527947452	821.2443513157542	0.0	644.0179405388621	856.5460745636717	0.0	644.1122252558465	864.8701439226611	0.0	648.1026265810557	866.6448331065419	0.0	643.458583123777	865.1389481656473	0.0	617.1748177461978	781.4241828488341	0.0	619.6246958721586	819.4645813842957	0.0	622.3987239744563	862.1335950663635	0.0	621.0109090530613	873.0283588596411	0.0	615.7178035724716	874.1634724546609	0.0	623.4676386418437	871.2823802630626	0.0	635.0747290530637	713.5620127329739	0.0	638.6995228725057	685.643709738546	0.0	639.3157032746217	706.1058297803262	0.0	655.0517096413101	723.318257796986	0.0	662.026673422241	758.1054004494897	0.0	662.2789094822277	787.3134945581929	0.0	613.251239200618	718.6843592164771	0.0	601.7791873512383	749.9119370803242	0.0	600.9053508561885	773.1054907117692	0.0
2073	69.12920540997465	629.2290345898936	780.6990605284182	0.0	640.6672277524443	783.6186553613555	0.0	644.8672654286319	821.6749807266759	0.0	644.0433853798179	857.0665920154173	0.0	644.2858688261637	865.1417214717626	0.0	648.3256109118878	866.9940150945336	0.0	643.3600173673067	865.749176796232	0.0	617.0284656426537	781.8238903663125	0.0	619.7002872141079	819.7212629702212	0.0	622.3602948494253	862.4790946134074	0.0	621.4295289731539	873.4798453538472	0.0	615.8974243209049	874.5827919180126	0.0	623.3351449233725	871.7085325941787	0.0	635.2756450497626	713.7220126597732	0.0	639.1234917200524	685.7425505455279	0.0	639.8625576427238	706.1789908887963	0.0	655.3810584591607	723.5655594464365	0.0	662.621883998013	758.5165420272186	0.0	663.0975584167231	787.972725999652	0.0	613.1137142661013	718.7927667893233	0.0	601.5273328881386	749.986872987667	0.0	601.0138566908328	773.0408228787825	0.0
2074	69.16255283178361	629.2193431810404	779.757431029037	0.0	640.6494716324178	782.6813800922913	0.0	643.9627903252681	820.7839758804789	0.0	644.0959071142266	856.0314312345175	0.0	644.0720051555605	864.7458391685007	0.0	648.1103088254305	866.3753578450153	0.0	643.2638346718329	864.5194409835455	0.0	617.4449130752488	781.0037340717403	0.0	619.5719211916497	818.989006403103	0.0	622.420278606238	861.7011421114506	0.0	620.5540860372264	872.4045172224323	0.0	615.5541694637644	873.4871145644598	0.0	623.5992107414315	870.7812005840119	0.0	634.8372905223288	713.5647044104355	0.0	637.9815381306281	685.7862329173834	0.0	638.6285293289827	706.2203382684667	0.0	654.7252156062231	723.100485607092	0.0	661.5577847246074	757.7452778187062	0.0	661.1673081005692	786.5217925923597	0.0	613.3012272236706	718.5660406076553	0.0	602.0417884393579	749.9051393416607	0.0	600.7372900396025	773.324929834691	0.0
2075	69.19590025359257	629.2711100150728	776.009114627898	0.0	640.4085918754358	778.6121735794333	0.0	639.6064438558584	816.9033895797389	0.0	644.0650758040539	851.4197604260553	0.0	642.7816448981106	862.6118615386158	0.0	646.5652598927127	863.4246633827129	0.0	643.5856829750122	859.0824421538571	0.0	618.978196830914	777.4147599464201	0.0	618.9436463061676	816.2963190154921	0.0	622.7297256860206	858.4686404559661	0.0	616.7641950074367	868.0695776806256	0.0	613.9891103179334	869.2780447785649	0.0	624.7741571370551	866.8549224105784	0.0	632.9840182990049	712.4507512899067	0.0	633.6613969532337	685.3639009729794	0.0	633.5070788553734	705.9247445910501	0.0	651.8056304581282	720.959905862857	0.0	656.5100579757712	754.1901753076701	0.0	653.3439887201115	780.4171180380089	0.0	614.3574051935656	717.5845604722978	0.0	604.2988085836544	749.3682125698458	0.0	599.6612553640633	774.1913185746006	0.0
2076	69.22924767540154	629.4182927461507	770.8710948682144	0.0	639.8521862694231	772.6325010913614	0.0	632.6350061859731	811.1588661421956	0.0	643.7154140697309	844.5499187140636	0.0	640.5028781110992	859.0464863288679	0.0	643.6557713381803	858.7798401537539	0.0	644.6870974303807	851.0071963893105	0.0	620.981595655485	772.1149135134517	0.0	617.9378150886098	812.760083632584	0.0	623.2303685674531	853.8798355654941	0.0	611.2300070564124	861.9846467662405	0.0	611.6590878740808	863.5909841609842	0.0	626.5307120201334	861.1570699690349	0.0	630.2366592695233	710.4031759876698	0.0	627.6889558317871	684.3438324100186	0.0	625.9631853805291	704.9021991271705	0.0	647.3694903646063	717.6573116091938	0.0	648.5546475453195	748.7141006905798	0.0	642.0389660658532	771.6423866031142	0.0	616.1786124949733	716.141862533193	0.0	607.6733395083007	748.409379318727	0.0	598.1940874855503	775.1182976623465	0.0
2077	69.2625950972105	629.5180018230166	767.8095890335157	0.0	639.0227269733158	768.400813057791	0.0	626.5210150803456	806.9768810004557	0.0	642.866516930691	839.7203425261197	0.0	638.4150810520384	855.9047785848165	0.0	640.7584277614683	855.0033952586728	0.0	645.9429617241149	845.2919845265372	0.0	622.1147008347456	768.337727631178	0.0	617.0903311745361	810.6253389783869	0.0	623.6053750475672	850.923387290223	0.0	607.4554415888609	858.0048219651189	0.0	610.0887741153207	860.1393040890348	0.0	627.8037636405058	857.2059029027295	0.0	628.1089773937377	708.4739735632576	0.0	623.3248064806193	683.8012978062428	0.0	619.981483747355	703.2675590599516	0.0	643.8561875012865	715.0524829757436	0.0	641.9524343755456	744.4068214962191	0.0	633.4343369564814	765.7524606635262	0.0	617.9159623533993	715.1166938281075	0.0	610.2391469767899	747.5590164508061	0.0	597.2934546912486	775.3987453595848	0.0
2078	69.29594251901945	629.2592921287857	767.7019274257369	0.0	637.9273796059861	767.3081893298983	0.0	622.9404592400075	805.6097313293642	0.0	641.4749051392772	838.8181256951117	0.0	637.5866433574691	854.3576285400924	0.0	639.3190749189025	853.4465184061427	0.0	646.0199962673992	844.0071796604982	0.0	622.172662473194	767.3884666552702	0.0	616.7026953507013	810.1245791495035	0.0	623.6253194728006	850.5767662687009	0.0	606.6768082268271	857.2890783082129	0.0	609.8389613746915	859.6800050182255	0.0	628.1679282182482	856.2830035012138	0.0	627.1972066184809	707.5630513562143	0.0	621.100705938493	685.1767570104141	0.0	616.9273611220476	702.0742980134705	0.0	642.192938226714	714.0147772493846	0.0	638.7727127423009	742.7066889431253	0.0	629.4102604422632	764.6012463509511	0.0	619.0491965435606	714.8426754889106	0.0	611.3360911831512	747.2811021046615	0.0	597.2521565330097	775.2513128121591	0.0
2079	69.32928994082842	628.509301969474	768.8248074262318	0.0	636.475062845052	768.0111581220409	0.0	620.9874033885941	805.6206189211927	0.0	639.3189758490365	840.1032731376888	0.0	637.2919526209582	854.0321631844946	0.0	638.8190544299975	853.3431345166782	0.0	644.2097716083731	845.0952648293385	0.0	621.9382224065299	768.2285511773982	0.0	616.648143736622	810.0908559522919	0.0	623.3960172462376	851.2895445742421	0.0	607.0574615964952	857.9126315706065	0.0	609.9939007782995	860.087057874713	0.0	628.1412594781704	856.7677212935887	0.0	626.8865635114556	707.4705571776967	0.0	619.5535639091523	687.9880403474949	0.0	615.3344583377833	702.0014972077862	0.0	641.2331386842619	713.8024224084712	0.0	637.4584971707638	742.6942925147739	0.0	627.4791456006262	765.5942043617463	0.0	619.8692774179206	714.9091106255269	0.0	611.9285538557359	747.6090422999666	0.0	597.7250030076377	775.2976114759468	0.0
2080	69.36263736263737	627.6071103628324	770.2932348276441	0.0	634.534533599829	769.6277612759222	0.0	619.8100729091982	806.1461961569836	0.0	635.8776116680325	841.9689522414603	0.0	634.2054875581232	854.3700725435773	0.0	635.8722304236964	853.605212131897	0.0	640.5545896324745	846.9669055572997	0.0	621.8362402250626	770.1188404602176	0.0	616.6728544833541	810.2831289915257	0.0	623.1867436087144	851.6632012016256	0.0	607.223207979044	858.3440618217614	0.0	609.9262046230621	860.0674359046726	0.0	628.2275768803853	857.1641164151206	0.0	626.3967725673593	707.5245860028368	0.0	618.312241708567	689.8980554619707	0.0	613.8113363527234	701.9697566822061	0.0	639.9313687951068	713.5895951976985	0.0	636.1473473926776	743.525043869873	0.0	625.6036360364762	766.8764183062365	0.0	620.8495737059591	714.8895991251014	0.0	612.8850551907025	748.324988175443	0.0	598.482953726555	775.6579643123996	0.0
2081	69.39598478444634	626.9503571293524	771.8747446466831	0.0	631.9377204351235	771.7924463377627	0.0	619.140379146674	807.2017721868771	0.0	631.0654226685709	844.1494473576001	0.0	625.5584475616395	855.2815909983261	0.0	627.459618867034	853.7749551765598	0.0	635.4663043412966	849.6500641019651	0.0	621.829166309403	772.4908441187217	0.0	616.5137217851282	810.7500728571507	0.0	623.1849289615581	851.2917514779147	0.0	607.6139795307441	858.3622554705296	0.0	610.2014333785958	859.6893728419152	0.0	628.5195817028585	857.0796863704923	0.0	625.4314179489982	707.5183616943907	0.0	617.6240828629492	689.6990735170798	0.0	612.0926880526009	701.0847107720725	0.0	638.1844269911184	713.3500734595699	0.0	634.4642836124947	744.7520333780748	0.0	622.8567227494358	767.9578215298544	0.0	622.0795694563544	714.7153873369668	0.0	614.5017332982272	748.9045622138766	0.0	599.5368095042278	776.1248566522255	0.0
2082	69.4293322062553	626.3407404584223	772.6963006277914	0.0	628.770223977973	773.3427035663924	0.0	618.6219142091436	808.1268141368564	0.0	625.9709902536588	846.0906838701833	0.0	614.2144694956542	856.4409689584871	0.0	616.1396149451876	853.8391243785898	0.0	630.0343848207755	852.4988166512504	0.0	621.8726400760039	774.0282442251549	0.0	616.0304067135155	810.8641144959373	0.0	623.3917445667118	850.3158126205893	0.0	608.8513696134094	858.1769825829795	0.0	611.516210256159	859.2238743514334	0.0	628.9122800719979	856.5505342624423	0.0	624.3227773311667	707.6647303856099	0.0	616.9000294586652	688.3997101978397	0.0	610.7327896017582	700.2253510355245	0.0	636.1382092629757	713.4647385439636	0.0	632.9549337297688	745.6790876684704	0.0	618.8198224032474	768.0001592861705	0.0	623.3603221523497	714.6086020177762	0.0	616.8094198534728	748.918193204991	0.0	601.0590853064876	776.4537189981885	0.0
2083	69.46267962806425	625.2182142269098	772.4370628701604	0.0	625.5499654325082	773.5016262510751	0.0	617.961954164921	808.3609701305901	0.0	622.1803427789305	846.9712960055276	0.0	606.3145416776289	857.1499367293216	0.0	607.9566528689984	853.8691550882969	0.0	625.7245608130579	854.1510132873018	0.0	621.966049271244	774.0822382105345	0.0	615.3263062245687	810.3881571540063	0.0	623.6143172070853	849.309397551666	0.0	610.4863755212697	858.0029285707393	0.0	613.3643960006455	858.8452493891925	0.0	629.1659594552784	855.8366484450162	0.0	623.5775746518792	707.9564723405764	0.0	615.706931098807	687.1726787079842	0.0	610.0494246121176	699.8573864609888	0.0	633.7786065598156	714.027995612212	0.0	631.6731208696383	746.0402929256119	0.0	614.3366016166818	767.2485057671167	0.0	624.5859426499215	714.787905848629	0.0	619.5453007784907	748.7963988804672	0.0	603.2337812325476	776.5918727143527	0.0
